<svg width="141" height="40" viewBox="0 0 141 40" fill="none" xmlns="http://www.w3.org/2000/svg">
<path d="M23.7287 18.792C26.23 19.2027 27.8914 20.08 28.7127 21.424C29.5714 22.7307 30.0007 24.28 30.0007 26.072C30.0007 26.4453 29.982 26.7253 29.9447 26.912C29.2354 31.4667 27.3314 34.7147 24.2327 36.656C21.134 38.56 17.4754 39.512 13.2567 39.512C12.174 39.512 10.998 39.3813 9.72869 39.12C8.49669 38.896 7.48869 38.56 6.70469 38.112C6.14469 38.5227 5.09935 38.728 3.56869 38.728C2.56069 38.728 1.85135 38.336 1.44069 37.552C1.03002 36.7307 0.824688 35.7413 0.824688 34.584C0.824688 34.1733 0.880688 33.7813 0.992688 33.408L7.26469 8.32C4.61402 9.216 2.97135 10.1493 2.33669 11.12C1.17935 9.888 0.600688 8.74933 0.600688 7.704C0.600688 6.88267 0.918021 6.04267 1.55269 5.184C3.04602 4.21333 5.47269 3.29866 8.83269 2.44C9.13135 1.656 9.50469 1.11467 9.95269 0.815998C10.438 0.517331 11.1474 0.367997 12.0807 0.367997C12.8647 0.367997 13.5927 0.442664 14.2647 0.591998C14.974 0.741331 15.478 0.965332 15.7767 1.264C17.5687 1.04 19.3794 0.927997 21.2087 0.927997C25.0167 0.927997 27.8167 1.69333 29.6087 3.224C31.4007 4.71733 32.2967 6.808 32.2967 9.496C32.2967 11.7733 31.494 13.7333 29.8887 15.376C28.2834 16.9813 26.23 18.12 23.7287 18.792ZM12.3607 17.336C20.5367 16.664 24.6247 14.2747 24.6247 10.168C24.6247 9.01067 24.27 8.11467 23.5607 7.48C22.8514 6.808 21.638 6.472 19.9207 6.472C18.39 6.472 16.6914 6.56533 14.8247 6.752L12.3607 17.336ZM12.5287 34.08C14.2087 34.08 15.8327 33.7813 17.4007 33.184C19.006 32.5493 20.3127 31.672 21.3207 30.552C22.3287 29.3947 22.8327 28.0507 22.8327 26.52C22.8327 25.2507 22.3847 24.168 21.4887 23.272C20.63 22.3387 19.4167 21.872 17.8487 21.872C14.8994 21.872 12.7714 21.984 11.4647 22.208C10.8674 24.224 9.87802 27.9573 8.49669 33.408C9.69135 33.856 11.0354 34.08 12.5287 34.08ZM41.1928 4.736C41.1928 3.57867 41.5475 2.552 42.2568 1.656C43.0035 0.759998 44.0301 0.311998 45.3368 0.311998C46.7181 0.311998 47.9128 0.741331 48.9208 1.6C49.9661 2.45866 50.4888 3.42933 50.4888 4.512C50.4888 5.59467 49.9661 6.528 48.9208 7.312C47.8755 8.096 46.6621 8.488 45.2808 8.488C43.9368 8.488 42.9101 8.152 42.2008 7.48C41.5288 6.77067 41.1928 5.856 41.1928 4.736ZM47.0728 14.648C45.0941 22.712 43.5821 28.7787 42.5368 32.848C42.3875 33.4453 42.3128 34.0987 42.3128 34.808L42.3688 36.376C42.3688 37.0107 42.1635 37.4587 41.7528 37.72C41.3795 37.9813 40.5581 38.1307 39.2888 38.168C38.0568 38.168 37.1235 38.0373 36.4888 37.776C35.8541 37.5147 35.5368 36.9547 35.5368 36.096C35.5368 35.6853 36.0035 33.5013 36.9368 29.544C37.9075 25.5867 39.2141 20.4347 40.8568 14.088L39.5688 12.408C39.4568 12.296 39.4008 12.1653 39.4008 12.016C39.4008 11.6427 39.8115 11.344 40.6328 11.12C41.4541 10.8587 42.5928 10.728 44.0488 10.728C45.3181 10.728 46.1208 11.1013 46.4568 11.848C46.8301 12.5573 47.0355 13.4907 47.0728 14.648ZM82.6534 0.424C83.6614 0.424 84.744 0.629333 85.9014 1.04C87.096 1.45066 87.7494 1.768 87.8614 1.992C87.0774 5.016 86.0507 9.30933 84.7814 14.872C83.512 20.3973 82.6534 24.112 82.2054 26.016C81.384 29.824 80.6187 33.2027 79.9094 36.152C79.3867 38.2053 78.5654 39.232 77.4454 39.232C74.496 39.232 72.816 38.6347 72.4054 37.44L72.2934 37.552L62.6054 12.968L58.7414 28.816L56.9494 35.984C56.688 37.0667 56.2774 37.7947 55.7174 38.168C55.1947 38.5413 54.1867 38.728 52.6934 38.728C51.536 38.728 50.6774 38.5227 50.1174 38.112C49.5947 37.7387 49.3334 37.0853 49.3334 36.152C49.3334 35.7413 49.3894 35.3493 49.5014 34.976L57.1734 4.68C57.584 3.03733 58.0134 1.95466 58.4614 1.432C58.9467 0.871997 59.8054 0.591998 61.0374 0.591998C62.0454 0.591998 62.9414 0.703997 63.7254 0.927997C64.5094 1.152 64.92 1.488 64.9574 1.936V2.048L74.4774 27.248L80.1894 2.216C80.1894 1.02133 81.0107 0.424 82.6534 0.424ZM99.7964 39.176C96.1377 39.176 93.4684 38.448 91.7884 36.992C90.1084 35.536 89.2684 33.5947 89.2684 31.168C89.2684 27.6213 90.1457 24.336 91.9004 21.312C93.6924 18.288 96.063 15.8987 99.0124 14.144C101.999 12.352 105.21 11.456 108.644 11.456C110.735 11.456 112.49 12.0533 113.908 13.248C115.327 14.4053 116.036 16.1227 116.036 18.4C116.036 20.9387 115.084 22.9547 113.18 24.448C111.314 25.904 108.943 26.9867 106.068 27.696C103.231 28.368 99.815 28.8907 95.8204 29.264C95.671 29.824 95.5964 30.4027 95.5964 31C95.5964 32.0453 96.0257 32.848 96.8844 33.408C97.7804 33.968 99.031 34.248 100.636 34.248C101.831 34.248 103.194 34.0053 104.724 33.52C106.292 33.0347 107.487 32.232 108.308 31.112C108.756 30.4773 109.316 29.9733 109.988 29.6C110.698 29.2267 111.37 29.04 112.004 29.04C112.602 29.04 113.087 29.2453 113.46 29.656C113.834 30.0293 114.02 30.608 114.02 31.392C113.572 32.5867 112.695 33.8 111.388 35.032C110.082 36.2267 108.42 37.216 106.404 38C104.388 38.784 102.186 39.176 99.7964 39.176ZM97.3884 24.112C98.695 24.0747 100.338 23.8693 102.316 23.496C104.295 23.1227 106.087 22.4693 107.692 21.536C109.298 20.5653 110.1 19.296 110.1 17.728C110.1 17.28 109.858 16.9253 109.372 16.664C108.887 16.3653 108.364 16.216 107.804 16.216C106.684 16.216 105.396 16.6453 103.94 17.504C102.522 18.3627 101.196 19.408 99.9644 20.64C98.7324 21.872 97.8737 23.0293 97.3884 24.112ZM126.602 31.84C126.602 32.6987 126.826 33.3893 127.274 33.912C127.722 34.3973 128.357 34.64 129.178 34.64C130.298 34.64 131.213 34.3227 131.922 33.688C132.669 33.016 133.453 32.0827 134.274 30.888C134.871 30.0293 135.357 29.4133 135.73 29.04C136.103 28.6667 136.533 28.48 137.018 28.48C137.989 28.48 138.679 28.6107 139.09 28.872C139.501 29.096 139.706 29.5813 139.706 30.328C139.706 30.664 139.669 31.0747 139.594 31.56C139.519 32.008 139.426 32.344 139.314 32.568C138.418 34.472 136.943 36.1147 134.89 37.496C132.874 38.8773 130.578 39.568 128.002 39.568C125.426 39.568 123.485 38.952 122.178 37.72C120.871 36.4507 120.218 34.6587 120.218 32.344C120.218 32.008 120.386 31.1307 120.722 29.712C121.058 28.2933 121.487 26.5947 122.01 24.616L123.578 18.232L120.162 18.512C119.714 18.512 119.378 18.344 119.154 18.008C118.93 17.672 118.818 17.2613 118.818 16.776C118.818 15.8427 119.154 14.9093 119.826 13.976C119.901 13.864 120.274 13.752 120.946 13.64C121.618 13.528 122.439 13.416 123.41 13.304L124.922 13.136L126.826 4.96C127.199 3.98933 127.759 3.24266 128.506 2.72C129.29 2.16 130.018 1.88 130.69 1.88C131.437 1.88 132.071 2.104 132.594 2.552C133.117 3 133.397 3.52266 133.434 4.12L131.418 12.52C132.874 12.3333 134.218 12.184 135.45 12.072C136.719 11.9227 137.709 11.848 138.418 11.848C139.837 11.848 140.546 12.6693 140.546 14.312C140.546 14.9467 140.266 15.5253 139.706 16.048C139.183 16.5333 138.605 16.832 137.97 16.944L130.13 17.728L126.602 31.84Z" fill="white"/>
</svg>
